<?xml version="1.0" encoding="UTF-8" standalone="no"?>
<svg
   xmlns:dc="http://purl.org/dc/elements/1.1/"
   xmlns:cc="http://creativecommons.org/ns#"
   xmlns:rdf="http://www.w3.org/1999/02/22-rdf-syntax-ns#"
   xmlns:svg="http://www.w3.org/2000/svg"
   xmlns="http://www.w3.org/2000/svg"
   version="1.1"
   id="svg2"
   viewBox="0 0 708.66141 708.66141"
   height="200mm"
   width="200mm">
  <defs
     id="defs4" />
  <metadata
     id="metadata7">
    <rdf:RDF>
      <cc:Work
         rdf:about="">
        <dc:format>image/svg+xml</dc:format>
        <dc:type
           rdf:resource="http://purl.org/dc/dcmitype/StillImage" />
        <dc:title></dc:title>
      </cc:Work>
    </rdf:RDF>
  </metadata>
  <g
     transform="translate(100.00055,133.44262)"
     id="layer1">
    <rect
       y="-70.495468"
       x="-42.857693"
       height="597.14288"
       width="594.28571"
       id="rect4201"
       style="fill:#ffffff;fill-opacity:1;fill-rule:nonzero;stroke:none;stroke-width:2;stroke-linecap:butt;stroke-linejoin:miter;stroke-miterlimit:4;stroke-dasharray:none;stroke-opacity:1" />
    <g
       id="text4136"
       style="font-style:normal;font-weight:normal;font-size:451.315979px;line-height:125%;font-family:sans-serif;letter-spacing:0px;word-spacing:0px;fill:#000000;fill-opacity:1;stroke:none;stroke-width:1px;stroke-linecap:butt;stroke-linejoin:miter;stroke-opacity:1"
       transform="scale(0.98168717,1.0186544)">
      <path
         id="path4376"
         style="font-style:normal;font-variant:normal;font-weight:900;font-stretch:normal;font-family:'Swiss 721';-inkscape-font-specification:'Swiss 721 Heavy'"
         d="m 46.138922,3.1386683 106.059258,0 0,324.4961917 -106.059258,0 0,-324.4961917 z" />
      <path
         id="path4378"
         style="font-style:normal;font-variant:normal;font-weight:900;font-stretch:normal;font-family:'Swiss 721';-inkscape-font-specification:'Swiss 721 Heavy'"
         d="m 302.42293,226.54008 q 4.06185,18.05264 14.89343,25.72501 11.2829,7.22105 32.94607,7.22105 18.95527,0 28.88422,-6.31842 10.38027,-6.76974 10.38027,-17.15001 0,-7.67237 -3.61053,-12.18553 -3.61053,-4.51316 -10.83158,-7.67237 -6.76974,-3.15921 -17.60133,-5.86711 -10.83158,-2.70789 -25.27369,-6.31842 -33.8487,-9.02632 -55.96318,-16.24738 -21.66317,-7.67237 -32.04344,-14.89342 -37.45922,-26.62765 -37.45922,-74.918456 0,-23.468431 9.02632,-42.423702 9.02632,-19.406587 26.62764,-32.946067 17.60132,-13.539479 42.87502,-20.7605347 25.27369,-7.2210556 57.76844,-7.2210556 63.18424,0 98.8382,26.6276423 35.65396,26.176327 40.16712,75.369769 l -98.8382,0 q -4.51316,-28.432907 -41.97238,-28.432907 -32.94607,0 -32.94607,22.114483 0,6.318424 3.15921,10.380268 3.15922,4.06184 9.02632,7.22106 6.31843,3.15921 15.34475,5.41579 9.02632,2.25658 20.76053,5.41579 30.23817,7.67237 53.7066,13.99079 23.46843,6.31843 39.26449,16.6987 21.66317,14.44211 31.59212,32.49475 9.92895,18.05264 9.92895,43.32633 0,53.25529 -37.00791,82.59082 -37.00791,28.88423 -108.31583,28.88423 -65.89213,0 -102.90004,-28.88423 -37.00792,-29.33553 -41.97239,-81.23687 l 101.54609,0 z" />
    </g>
    <path
       id="rect4173"
       d="m -100.00055,-133.35296 0,708.57176 712.76309,0 0,-708.57176 -712.76309,0 z m 102.1791058,106.028637 513.3897142,0 0,506.861373 -513.3897142,0 0,-506.861373 z"
       style="fill:#000000;fill-opacity:1;fill-rule:nonzero;stroke:none;stroke-width:2;stroke-linecap:butt;stroke-linejoin:miter;stroke-miterlimit:4;stroke-dasharray:none;stroke-opacity:1" />
    <g
       id="text4178"
       style="font-style:normal;font-weight:normal;font-size:327.5246582px;line-height:125%;font-family:sans-serif;letter-spacing:0px;word-spacing:0px;fill:#000000;fill-opacity:1;stroke:none;stroke-width:1px;stroke-linecap:butt;stroke-linejoin:miter;stroke-opacity:1"
       transform="scale(0.98168717,1.0186544)">
      <path
         id="path4363"
         style="font-style:normal;font-variant:normal;font-weight:normal;font-stretch:normal;font-size:104.80789185px;font-family:Swiss721;-inkscape-font-specification:Swiss721"
         d="m 77.100023,403.18953 q 3.249045,0 5.554818,-0.20962 2.410582,-0.31442 3.9827,-1.15289 1.572119,-0.83846 2.305774,-2.30577 0.838463,-1.46731 0.838463,-3.9827 0,-2.6202 -0.838463,-4.08751 -0.733655,-1.57212 -2.305774,-2.30577 -1.572118,-0.83846 -3.9827,-1.04808 -2.410581,-0.31442 -5.554818,-0.31442 l -7.755784,0 0,15.40676 7.755784,0 z m -31.966407,-33.85295 31.023136,0 q 8.803863,0 15.197144,1.04808 6.393282,0.94327 11.109634,3.9827 10.37598,6.91732 10.37598,21.17119 0,12.68175 -7.44136,19.38946 -7.336548,6.7077 -21.590422,6.7077 l -14.463489,0 0,23.05774 -24.210623,0 0,-75.35687 z" />
      <path
         id="path4365"
         style="font-style:normal;font-variant:normal;font-weight:normal;font-stretch:normal;font-size:104.80789185px;font-family:Swiss721;-inkscape-font-specification:Swiss721"
         d="m 122.93055,369.33658 24.62985,0 0,75.35687 -24.62985,0 0,-75.35687 z" />
      <path
         id="path4367"
         style="font-style:normal;font-variant:normal;font-weight:normal;font-stretch:normal;font-size:104.80789185px;font-family:Swiss721;-inkscape-font-specification:Swiss721"
         d="m 234.22179,415.45205 q -1.04808,14.98753 -10.48079,23.16254 -9.3279,8.17502 -25.67793,8.17502 -9.11829,0 -16.35003,-2.72501 -7.12694,-2.82981 -12.15772,-7.9654 -5.03078,-5.13558 -7.75578,-12.47214 -2.6202,-7.33655 -2.6202,-16.55964 0,-9.2231 2.6202,-16.55965 2.725,-7.44136 7.65097,-12.57695 5.03078,-5.13558 12.15772,-7.86059 7.12694,-2.725 15.9308,-2.725 16.55965,0 25.78274,7.9654 9.3279,7.86059 10.48079,22.53369 l -23.16254,0 q -1.15289,-11.63367 -12.78657,-11.63367 -14.25387,0 -14.25387,20.85677 0,20.85677 14.88272,20.85677 5.65963,0 8.90867,-3.14424 3.35385,-3.24904 3.87789,-9.3279 l 22.95293,0 z" />
      <path
         id="path4369"
         style="font-style:normal;font-variant:normal;font-weight:normal;font-stretch:normal;font-size:104.80789185px;font-family:Swiss721;-inkscape-font-specification:Swiss721"
         d="m 244.30955,369.33658 24.00101,0 0,24.94427 21.69523,-24.94427 28.08852,0 -26.93563,27.77409 30.39429,47.58278 -28.82217,0 -18.44619,-30.18467 -5.97405,6.18366 0,24.00101 -24.00101,0 0,-75.35687 z" />
      <path
         id="path4371"
         style="font-style:normal;font-variant:normal;font-weight:normal;font-stretch:normal;font-size:104.80789185px;font-family:Swiss721;-inkscape-font-specification:Swiss721"
         d="m 349.98701,369.33658 0,46.42989 q 0,6.28848 2.51539,9.11829 2.51539,2.82981 9.11829,2.82981 6.49809,0 8.90867,-2.82981 2.51539,-2.93462 2.51539,-9.11829 l 0,-46.42989 24.21062,0 0,48.31643 q 0,14.25388 -9.01348,21.69524 -9.01348,7.44136 -26.6212,7.44136 -17.60773,0 -26.72602,-7.44136 -9.11828,-7.44136 -9.11828,-21.69524 l 0,-48.31643 24.21062,0 z" />
      <path
         id="path4373"
         style="font-style:normal;font-variant:normal;font-weight:normal;font-stretch:normal;font-size:104.80789185px;font-family:Swiss721;-inkscape-font-specification:Swiss721"
         d="m 443.31352,403.18953 q 3.24905,0 5.55482,-0.20962 2.41058,-0.31442 3.9827,-1.15289 1.57212,-0.83846 2.30578,-2.30577 0.83846,-1.46731 0.83846,-3.9827 0,-2.6202 -0.83846,-4.08751 -0.73366,-1.57212 -2.30578,-2.30577 -1.57212,-0.83846 -3.9827,-1.04808 -2.41058,-0.31442 -5.55482,-0.31442 l -7.75578,0 0,15.40676 7.75578,0 z m -31.9664,-33.85295 31.02313,0 q 8.80387,0 15.19715,1.04808 6.39328,0.94327 11.10963,3.9827 10.37599,6.91732 10.37599,21.17119 0,12.68175 -7.44137,19.38946 -7.33655,6.7077 -21.59042,6.7077 l -14.46349,0 0,23.05774 -24.21062,0 0,-75.35687 z" />
    </g>
    <rect
       y="806.6474"
       x="871.42804"
       height="31.428572"
       width="17.142857"
       id="rect4308"
       style="fill:#ffffff;fill-opacity:1;fill-rule:nonzero;stroke:none;stroke-width:2;stroke-linecap:butt;stroke-linejoin:miter;stroke-miterlimit:4;stroke-dasharray:none;stroke-opacity:1" />
  </g>
</svg>
